#tb 0: 1/30
0,          0,          0,        1,  3110400, f9b685c9aaa7652faeded50ed1005414
0,          1,          1,        1,  3110400, d22c3d6a1e57ba4af2bd19e09ad7bdb1
0,          2,          2,        1,  3110400, 0d516dc90992321576a1f090b382beab
0,          3,          3,        1,  3110400, a306b1c732dbaea18ad1efd9d3820094
0,          4,          4,        1,  3110400, faddd965d3e70e62cad07dc72225e8c2
0,          5,          5,        1,  3110400, 375795188ae0ce026179aea29cb8a1b4
0,          6,          6,        1,  3110400, aa372227e1630513116ff6678a2c4fcf
0,          7,          7,        1,  3110400, e4937f5756a3bbbe2660c0874514479b
0,          8,          8,        1,  3110400, ad7d1f6a28ac9f6490f1ee7595ef6b94
0,          9,          9,        1,  3110400, 305414d3ca8aca36242e08041b92ad69
0,         10,         10,        1,  3110400, b719401bd210e4fc02be258ca866e50e
0,         11,         11,        1,  3110400, a25f312e44492715f334ab97f50e73ad
0,         12,         12,        1,  3110400, 1da8d6815b3ce412690e86f18444c621
0,         13,         13,        1,  3110400, 0522ee62ed61c900b71f3fff2030026b
0,         14,         14,        1,  3110400, 523d2a4f5571a952f68d5768eb3336dc
0,         15,         15,        1,  3110400, 03a9b1f05d48c25d689f74db4d2cdbe1
0,         16,         16,        1,  3110400, 6ae91271da4f5c6e604df8e04a40ea45
0,         17,         17,        1,  3110400, 5b3e7bac9f61c4248999a2587a630d28
0,         18,         18,        1,  3110400, 60069876ccffeee06a535e471b8916e8
0,         19,         19,        1,  3110400, 9f5101c81bc7702d98baee78c4ffe65d
0,         20,         20,        1,  3110400, c02641360b4d8af4640aa330d9eb8bb0
0,         21,         21,        1,  3110400, 63274292e7d3f2482c3c282722ae3f02
0,         22,         22,        1,  3110400, ae39b5a18260046e96b4b44520ef0f7d
0,         23,         23,        1,  3110400, bb89af6f8f2b13d0cd668d445669f655
0,         24,         24,        1,  3110400, 0ac58c28575b804d9e63395653c3aef2
0,         25,         25,        1,  3110400, 641f2a78e338c733ef159bd36ec7966f
0,         26,         26,        1,  3110400, 9402d455fa5bd556b85f479c42c3a4d2
0,         27,         27,        1,  3110400, fa2407483a8e169a161e45ac6cfa7831
0,         28,         28,        1,  3110400, 087744a0ac52ef96803fc9c4fb17635b
0,         29,         29,        1,  3110400, b62328f2bd00b269cd3a359360b613b7
